<?xml version="1.0" encoding="UTF-8" standalone="no"?>
<svg width="25px" height="29px" viewBox="0 0 25 29" version="1.1" xmlns="http://www.w3.org/2000/svg" xmlns:xlink="http://www.w3.org/1999/xlink" xmlns:sketch="http://www.bohemiancoding.com/sketch/ns">
    <title>acorn_tan</title>
    <description>Created with Sketch (http://www.bohemiancoding.com/sketch)</description>
    <defs></defs>
    <g id="Page 1" stroke="none" stroke-width="1" fill="none" fill-rule="evenodd">
        <path d="M11.5478345,0 C12.1690098,0.1756 12.7251957,0.3132 13.2635941,0.5017 C13.3727047,0.5399 13.4752567,0.7691 13.4787348,0.9127 C13.4988079,1.7619 13.488672,2.6117 13.4887714,3.4613 C13.4888707,3.6395 13.4887714,3.8177 13.4887714,3.9306 C14.8191658,4.1921 16.0914274,4.3877 17.3350699,4.6992 C19.3892911,5.2137 21.3327123,6.0106 22.9624156,7.4162 C24.2613091,8.5364 25.0899735,9.9154 24.9921913,11.7127 C24.9273012,12.904 24.4128516,13.818 23.2780216,14.2875 C23.0138904,14.3968 22.89842,14.5152 22.8866941,14.8211 C22.7905018,17.3536 22.3304087,19.8084 21.2459604,22.116 C20.2880129,24.1543 18.9596059,25.8982 17.0927013,27.1741 C13.8851669,29.3659 10.2038261,29.164 7.23687167,26.657 C4.68280858,24.4988 3.25343952,21.6779 2.59122348,18.447 C2.34905354,17.2656 2.28287169,16.0461 2.16859371,14.8409 C2.14086888,14.5496 2.06256362,14.3991 1.78293038,14.2997 C0.335674335,13.7851 -0.224883985,12.0059 0.0807847603,10.6607 C0.592054492,8.4115 2.14961363,7.0921 4.05507468,6.0886 C6.29561863,4.9086 8.70191534,4.2973 11.2103666,4.0628 C11.2906593,4.0554 11.3707533,4.0431 11.5478345,4.0208 L11.5478345,0 Z M11.5478345,0" id="acorn_tan" fill="#FFD695"></path>
    </g>
</svg>
