<?xml version="1.0" encoding="UTF-8" standalone="no"?>
<svg width="982px" height="141px" viewBox="0 0 982 141" version="1.1" xmlns="http://www.w3.org/2000/svg" xmlns:xlink="http://www.w3.org/1999/xlink" xmlns:sketch="http://www.bohemiancoding.com/sketch/ns">
    <title>businessowners</title>
    <description>Created with Sketch (http://www.bohemiancoding.com/sketch)</description>
    <defs></defs>
    <g id="Page 1" stroke="none" stroke-width="1" fill="none" fill-rule="evenodd">
        <g id="businessowners">
            <g id="Group" fill="#FFD695">
                <path d="M161.068648,49.57776 C160.109218,47.0904 158.492879,45.0048 156.376657,43.44384 C158.005,40.36608 158.179792,37.25184 157.756259,34.84704 C157.66022,34.1232 157.517602,33.37872 157.327444,32.61312 C156.058288,27.5496 153.480117,23.2176 149.663523,19.7328 C147.599642,17.73504 145.244763,16.03152 142.625776,14.63856 C140.000067,8.23008 135.359456,4.43568 129.79639,4.43568 L129.459293,4.44048 C127.753638,4.4904 125.236453,4.94208 122.759124,6.7728 C118.511313,7.5072 115.716575,10.40208 113.929767,13.356 C107.751571,16.716 102.86462,22.19088 99.8965311,26.11344 C98.9332587,26.29728 97.9671051,26.5248 96.9980704,26.79792 C94.726265,22.09296 91.8455716,17.9328 88.377599,14.3592 C80.1134328,5.84304 69.0348401,1.15248 55.4491462,0.41856 C51.9288323,0.22848 48.5007159,0.34512 45.2008117,0.768 L41.3083462,1.41888 C39.8514328,1.72272 38.4223707,2.08896 37.0254817,2.51664 C34.038665,3.34272 11.1655081,10.33296 3.43772029,32.54112 C-1.44538875,46.57152 -0.980079218,61.15536 4.70495648,72.61632 C7.80990122,79.7328 13.2020176,85.53696 20.317556,89.4144 C26.2148381,92.628 33.1531844,94.39728 39.8552743,94.39728 C44.7974474,94.39728 49.3439394,93.43056 53.00351,91.60176 L53.4692998,91.35312 C54.1790289,90.94992 55.8299413,89.96208 57.7977829,88.44144 C63.4967443,100.39104 74.7121927,106.9656 85.9041115,109.26144 C86.4198416,109.37376 87.7471022,109.64112 89.4988557,109.83504 C92.3925144,113.05056 96.3766973,113.81184 98.2994005,114.07056 C98.2994005,114.07056 106.018545,114.17184 107.353489,114.10032 C108.582789,114.03456 109.81209,113.96928 111.040911,113.89488 L111.565284,113.86512 C112.665892,113.79648 113.963381,113.71056 115.284399,113.59536 L115.97348,113.53536 L116.648635,113.38176 C124.105592,111.68208 128.649203,107.35008 129.113552,101.49504 L129.144765,101.09568 L129.143324,100.52496 C129.056889,95.472 127.244631,91.89792 124.711599,89.6736 C126.115211,85.92624 126.943068,82.4832 127.197091,79.31136 C132.553673,76.72176 137.042062,74.19072 140.612796,71.74752 C140.999354,71.77008 141.389753,71.78112 141.783033,71.78112 L141.784473,71.78112 C148.400128,71.78112 154.992253,68.75184 158.577394,64.06848 C161.992065,59.60832 162.900595,54.3264 161.068648,49.57776 M50.688487,64.3296 C49.8198132,64.81056 48.702398,65.1912 47.3343208,65.1912 C43.4572215,65.1912 40.3028166,62.03856 40.3028166,58.16256 C40.3028166,55.24416 42.093466,52.73616 44.6337007,51.67584 C45.4841271,51.31008 46.4205086,51.1056 47.4044293,51.1056 C51.2834494,51.1056 54.42729,54.24816 54.42729,58.1256 C54.42729,60.81648 52.9117927,63.15072 50.688487,64.3296 Z M147.833978,50.52576 C151.980467,51.28704 153.06811,54.67776 150.569652,57.94176 C148.025095,61.26624 141.40848,62.7408 138.251194,60.90048 C133.779613,64.74432 126.363952,68.56656 121.438106,70.88976 C118.398467,72.39264 116.434467,73.13424 116.434467,73.13424 C118.354289,77.64672 116.242389,84.31104 113.822203,89.59968 L112.626036,98.748 C113.801075,98.26512 115.053905,97.69968 116.434467,97.10256 C118.373978,96.26352 119.023202,98.49936 119.060657,100.6968 L119.060657,100.69968 C118.915638,102.52656 114.407082,103.55424 114.407082,103.55424 C113.236365,103.65648 112.063727,103.7352 110.889649,103.80816 L110.734546,103.8192 L110.666838,103.82016 C108.02,103.9824 105.36836,104.10048 102.722962,104.26656 L102.722962,104.26464 C102.722962,104.26464 101.436038,104.2968 100.054515,104.13168 L100.052595,104.13168 C98.3267716,103.92624 96.4516078,103.4136 96.736844,102.14976 C96.7747795,102.03552 96.8117545,101.92224 96.8516108,101.81232 C96.8986699,101.71296 96.9236401,101.64 96.9370856,101.57904 C97.0974709,101.15232 97.2612176,100.77744 97.4124792,100.4568 C96.9827042,100.2432 96.5476469,100.0104 96.1087482,99.75648 C92.4539795,100.41024 87.9992049,99.40128 87.9992049,99.40128 C80.9825868,97.97664 61.4098142,91.58736 64.3274826,64.94736 C64.357735,64.70256 64.3846259,64.46064 64.4062347,64.22448 C64.4086357,64.20384 64.4105565,64.1832 64.4129575,64.1616 C64.4129575,64.1616 65.2888342,60.3912 64.3668587,56.52288 C63.5394817,47.84448 56.2328254,41.05584 47.3343208,41.05584 C37.8821506,41.05488 30.218709,48.71616 30.218709,58.16352 C30.218709,67.6128 37.8821506,75.27216 47.3343208,75.27216 C51.6532,75.27216 55.5869623,73.66032 58.5982689,71.0232 C57.3603247,77.55744 48.4930328,82.58736 48.4930328,82.58736 C39.9810856,86.8416 20.3516499,83.6784 13.8517222,68.36352 C9.20775061,59.19168 8.93211834,47.43264 12.9619198,35.8536 C19.3734914,17.42688 39.8110963,12.20592 39.8110963,12.20592 L39.8115765,12.20688 C44.2303364,10.82784 49.2426181,10.17792 54.9046044,10.48368 C79.4944606,11.81232 88.1696743,28.2192 91.2160352,40.4376 C94.8127002,38.12832 99.9800851,35.64288 105.557077,35.64864 C105.557077,35.64864 112.73408,23.92704 121.420338,21.03264 C122.142553,18.9864 123.280136,16.71984 124.789391,16.67664 C125.489996,16.656 126.16131,17.11584 126.770198,17.86176 C127.48713,16.14432 128.489298,14.5536 129.751732,14.51664 C131.829058,14.45616 133.656683,18.60576 134.332318,21.99456 C137.583722,23.12304 140.463935,24.82752 142.754468,27.07824 C145.027234,29.11824 146.704077,31.70592 147.54586,35.064 C147.662548,35.53248 147.744181,35.98368 147.787879,36.41568 C147.787879,36.41568 149.020541,39.38736 143.250511,42.13152 C139.083373,44.4912 133.533272,46.27536 133.533272,46.27536 L128.630956,51.636 C128.630956,51.636 130.042731,52.76832 131.650425,53.56608 C135.198111,55.47312 136.545539,53.3232 136.545539,53.3232 C139.927557,49.03872 144.01114,49.82448 147.833978,50.52576 Z M147.833978,50.52576" id="Shape"></path>
            </g>
            <path d="M977.445345,35.9736 C970.997758,31.55952 962.70334,29.32176 952.791622,29.32176 C945.157473,29.32176 938.266186,31.332 932.242132,35.30688 C931.639967,34.68912 930.946564,34.1448 930.171529,33.69696 C927.618809,32.22048 924.643037,31.47168 921.328727,31.47168 C919.115985,31.47168 916.84466,31.88688 914.525315,32.5056 C913.252797,31.9008 911.846304,31.67952 910.399955,31.67952 L891.882652,31.67952 C887.539763,31.67952 883.737094,34.48848 882.608635,38.6808 L882.338285,39.63456 C879.768758,37.02048 876.562012,34.98672 872.756462,33.61584 C868.927862,31.91232 864.783294,31.03632 860.42792,31.03632 C852.79281,31.03632 845.28159,33.5832 838.104107,38.61888 C835.75595,40.2648 833.575862,42.09792 831.570085,44.1168 C828.452175,38.48112 823.418765,34.20432 817.19687,32.3304 C815.090252,31.6968 812.733452,31.38768 809.989615,31.38768 C807.011922,31.38768 804.010219,31.93632 801.001794,32.73648 C799.59434,31.95744 797.995769,31.67952 796.346778,31.67952 L777.857326,31.67952 C777.407383,31.67952 776.963202,31.56336 776.526704,31.62384 C775.786243,31.44192 775.01841,31.19952 774.236651,31.19952 L755.950803,31.19952 C752.510201,31.19952 749.332747,33.0408 747.62037,36.024 L744.848681,40.85376 C744.858285,39.07824 744.375208,37.30368 743.409534,35.74512 C741.658741,32.91984 738.570123,31.19904 735.244769,31.19904 L734.70695,31.19904 L716.555556,31.19904 C713.084222,31.19904 709.882758,33.07296 708.181905,36.09936 L705.352112,41.13552 L705.303133,40.26576 C705.019337,35.1792 700.810422,31.19904 695.714107,31.19904 L677.562713,31.19904 C674.922598,31.19904 672.39917,32.28672 670.584991,34.2048 C670.103835,34.71312 669.683664,35.26992 669.328799,35.86032 C668.111503,35.06736 666.892287,34.392 665.703802,33.81696 C661.594769,31.72512 657.126549,30.66432 652.420152,30.66432 C644.821536,30.66432 637.405396,33.24672 630.379654,38.33856 C623.733267,43.15536 618.427105,49.62528 614.607629,57.56832 C611.021048,64.86192 609.202548,72.4704 609.202548,80.18112 C609.202548,99.57552 619.00334,108.4392 627.225249,112.45968 C627.237254,112.46592 627.249739,112.4712 627.261744,112.47744 C631.341486,114.45072 635.779453,115.45152 640.453677,115.45152 C648.052292,115.45152 655.467953,112.8696 662.494175,107.77776 C665.726852,105.4344 668.64356,102.70032 671.225572,99.59472 L671.342259,101.68224 C670.53409,104.30496 670.881752,107.24352 672.35163,109.62 C674.101943,112.45008 677.192482,114.23904 680.521198,114.23904 L699.344866,114.23904 C702.222678,114.23904 704.948748,112.88352 706.773011,110.65872 C707.75165,109.46544 708.41528,108.03744 708.73317,106.5648 L709.909169,104.49504 C709.903887,106.26048 710.385043,108.0792 711.343513,109.62912 C713.093826,112.4592 716.184365,114.23904 719.513081,114.23904 L738.336748,114.23904 C741.804721,114.23904 745.002823,112.30512 746.704637,109.28448 L752.864586,98.32032 L751.89315,102.00096 C751.136842,104.87952 751.758695,108.0456 753.576716,110.4024 C755.395217,112.7592 758.204361,114.23904 761.182054,114.23904 L779.671505,114.23904 C781.397808,114.23904 783.037676,113.67168 784.459055,112.85424 C784.362056,121.09392 786.898449,128.15232 791.816612,132.81504 C797.521816,138.22416 803.870962,140.93952 810.687339,140.93952 C810.967773,140.93952 811.248688,140.92128 811.529602,140.91168 C821.916713,140.55648 830.267314,137.0928 836.347071,130.63008 C838.766296,128.05872 839.578787,124.36272 838.461852,121.01376 L835.550426,112.28256 C840.264987,114.44688 845.100076,115.54224 849.940448,115.54224 C856.084551,115.54224 861.894437,113.87136 867.210202,110.44704 C869.028703,112.79712 871.833526,114.23904 874.807377,114.23904 L895.245462,114.23904 C899.588351,114.23904 903.39102,111.25968 904.51948,107.06832 L905.586474,102.11184 C905.77279,104.81952 907.09813,107.35776 909.330079,109.06272 C912.141624,111.21168 916.297237,112.7328 923.213975,114.16896 C928.671398,115.40064 932.944178,115.99152 936.272894,115.99488 C947.906112,116.00592 957.436555,112.82928 964.339846,106.59264 C971.423692,100.19616 975.168737,91.38816 975.168737,81.12384 C975.168737,76.36992 973.815066,71.9568 971.202802,68.0832 C971.32141,68.0448 971.439538,68.004 971.557186,67.9608 C974.546404,66.8664 976.798521,64.36176 977.570676,61.2744 L981.335409,46.2216 C982.309726,42.32928 980.757734,38.24112 977.445345,35.9736 L977.445345,35.9736 Z M596.2704,35.9736 C599.582789,38.24112 601.134781,42.32928 600.159984,46.22256 L596.395251,61.27536 C595.623096,64.36272 593.371459,66.86688 590.381761,67.96128 C590.264113,68.00448 590.145985,68.04528 590.027377,68.08368 C592.639161,71.9568 593.993312,76.36992 593.993312,81.12336 C593.993312,91.38768 590.248267,100.19472 583.164422,106.5912 C576.26113,112.82784 567.625772,115.99056 557.498447,115.99056 C554.169731,115.99056 549.896951,115.392 544.439528,114.16032 C537.62027,112.7448 533.485306,111.23616 530.675681,109.13472 C524.354867,113.68704 516.798509,115.99056 508.155468,115.99056 C504.827232,115.99056 500.554932,115.392 495.097989,114.1608 C488.7402,112.84128 484.7152,111.44064 481.922863,109.55424 C481.589127,109.84272 481.233302,110.11008 480.858749,110.35248 C475.530019,113.796 469.704286,115.5432 463.542416,115.5432 C458.637698,115.5432 453.738262,114.41808 448.963677,112.19568 L451.904395,121.01472 C453.02133,124.36368 452.209319,128.05968 449.789614,130.63104 C443.709857,137.09376 435.359256,140.55744 424.972145,140.91264 C424.69123,140.92224 424.410316,140.94048 424.129882,140.94048 C417.313505,140.94048 410.964359,138.22512 405.259155,132.816 C400.340992,128.15328 397.804599,121.09488 397.901598,112.8552 C396.480219,113.67264 394.839871,114.24 393.114048,114.24 L374.624597,114.24 C372.979927,114.24 371.386157,113.70912 369.982546,112.93488 C368.509786,113.83728 366.784923,114.24 364.964502,114.24 L346.344437,114.24 C343.468066,114.24 340.748718,112.95936 338.927816,110.74704 C333.131375,114.23328 326.404315,116.00112 318.846036,116.00112 C315.51732,116.00112 311.24502,115.4136 305.787117,114.18192 C302.003176,113.39616 299.045171,112.60416 296.682128,111.67584 C294.912607,113.54352 292.41607,114.72 289.707287,114.72 L270.957089,114.72 C269.434389,114.72 267.956347,114.31584 266.632448,113.64816 C263.108292,114.60192 259.565409,115.03776 256.028289,115.03776 C255.877987,115.03776 255.728646,115.0368 255.577865,115.03488 C249.87074,114.96864 241.815459,111.89472 236.683129,105.18 C235.915296,104.17488 235.145062,103.00368 234.449259,101.66256 C233.201711,102.99648 231.890296,104.25312 230.517417,105.4296 C223.689036,111.27792 216.500027,114.24336 209.150634,114.24336 C205.854091,114.24336 202.777958,113.67648 199.964492,112.56816 C198.407218,113.63184 196.532534,114.24048 194.545485,114.24048 L176.057954,114.24048 C173.081222,114.24048 170.272557,112.89264 168.454057,110.5368 C166.635556,108.18 166.013222,105.14736 166.76857,102.26928 L191.779078,7.04064 C192.886889,2.81904 196.703003,0 201.068462,0 L219.835466,0 C222.817961,0 225.631427,1.34736 227.449447,3.71088 C229.266988,6.07536 229.883079,9.11136 229.116206,11.99328 L223.92097,31.68 L223.933455,31.68 C227.265052,31.68 230.414655,32.13552 233.295349,33.34512 C233.306873,33.34992 233.318398,33.1968 233.329923,33.2016 C236.825267,34.68528 240.630817,37.16256 243.715113,41.20512 C244.090146,39.78624 244.330724,38.9328 244.388347,38.7144 C245.502401,34.50336 249.314194,31.68048 253.672929,31.68048 L272.167182,31.68048 C275.148237,31.68048 277.960262,33.00864 279.778283,35.36976 C279.82006,35.424 279.860876,35.42256 279.901213,35.47776 C281.671214,33.07488 284.513011,31.68096 287.635723,31.68096 L306.245223,31.68096 C308.994343,31.68096 311.599885,32.74704 313.415024,34.78272 C319.197539,31.23024 325.748848,29.32368 332.963787,29.32368 C341.870935,29.32368 349.472911,31.13328 355.601648,34.70304 C356.648474,33.43344 358.009349,32.45136 359.549816,31.8552 C357.689538,29.20992 356.703217,26.12832 356.703217,22.80432 C356.703217,17.59584 359.177184,12.83088 363.672295,9.3648 C367.450474,6.45504 371.950867,4.92288 377.057748,4.77216 C377.321855,4.76496 377.584522,4.80144 377.844308,4.80144 L377.844788,4.80144 C382.640982,4.80144 386.922886,6.10512 390.571412,8.61312 C395.337354,11.88768 397.962103,16.7112 397.962103,22.13472 C397.962103,25.53504 396.908554,28.80144 394.929187,31.68144 L409.78932,31.68144 C411.438312,31.68144 413.036883,31.95888 414.444336,32.73792 C417.452762,31.93824 420.454465,31.38912 423.432157,31.38912 C426.175995,31.38912 428.532795,31.6968 430.639413,32.3304 C436.899723,34.21584 441.956183,38.53152 445.069771,44.21904 C447.10388,42.15936 449.318062,40.28784 451.706555,38.61408 C458.884038,33.57792 466.395258,31.0248 474.030368,31.0248 C478.385262,31.0248 482.53031,31.88832 486.358429,33.59184 C490.269622,35.00016 493.548398,37.08144 496.152499,39.80208 C496.690798,39.2736 497.250706,38.7576 497.831743,38.2536 C497.841827,38.24448 497.852391,38.23632 497.862475,38.2272 C504.740317,32.31792 512.953582,29.32224 522.273219,29.32224 C532.184936,29.32224 540.479355,31.56 546.926941,35.97408 C547.471483,36.34656 547.967525,36.768 548.413626,37.22976 C555.038885,31.98048 562.836301,29.32176 571.616678,29.32176 C581.528395,29.32176 589.822814,31.55952 596.2704,35.9736 Z M457.626886,83.22864 C458.562787,83.54112 458.748623,83.9136 464.617574,84.16896 C470.486524,84.42432 477.210703,82.01904 482.769447,77.71824 C488.325791,73.41696 491.731338,68.44464 492.98753,62.79984 C493.256919,61.5456 493.391374,60.15792 493.391374,58.63344 C493.391374,50.30016 489.848971,44.92416 482.769447,42.50496 C480.080352,41.2512 477.166525,40.62336 474.029888,40.62336 C468.382787,40.62336 462.779385,42.57216 457.223042,46.47024 C451.664297,50.36736 447.317567,55.54224 444.180929,61.99344 C441.3108,67.90704 439.878377,73.91136 439.878377,80.00304 C439.878377,91.38288 444.000376,99.08784 452.248215,103.11984 C456.012949,105.00144 459.778162,105.94224 463.542896,105.94224 C467.845448,105.94224 471.878611,104.724 475.643825,102.2904 L480.349742,84.16944 C475.597726,89.09808 469.71629,91.55808 463.542896,91.42704 C457.369501,91.296 457.518362,83.69088 457.626886,83.22864 Z M458.702524,71.53536 C460.404337,71.8944 462.108071,72.07344 463.811805,72.07344 C468.292991,72.07344 471.967447,70.99824 474.837096,68.84736 C477.795101,66.2496 479.274104,63.65184 479.274104,61.05216 C479.274104,59.62032 478.736285,58.23024 477.660646,56.88576 C476.585489,55.54176 475.329297,54.87024 473.895913,54.87024 C470.757355,54.87024 467.576539,56.93184 464.349624,61.05216 C461.660529,64.45872 459.778162,67.95312 458.702524,71.53536 L458.702524,71.53536 Z M844.024438,83.22864 C843.915914,83.69088 843.767053,91.296 849.940448,91.42704 C856.113843,91.55808 861.995278,89.09808 866.747294,84.16944 L862.041377,102.2904 C858.276163,104.724 854.243,105.94224 849.940448,105.94224 C846.175714,105.94224 842.410501,105.00144 838.645767,103.11984 C830.397928,99.08784 826.275929,91.38288 826.275929,80.00304 C826.275929,73.91136 827.708352,67.90704 830.578481,61.99344 C833.715119,55.54224 838.061849,50.36736 843.620594,46.47024 C849.176937,42.57216 854.780339,40.62336 860.42744,40.62336 C863.564077,40.62336 866.477904,41.2512 869.167,42.50496 C876.246523,44.92416 879.788926,50.30016 879.788926,58.63344 C879.788926,60.15792 879.654471,61.5456 879.385082,62.79984 C878.12889,68.44464 874.723343,73.41696 869.167,77.71824 C863.608255,82.01904 856.884076,84.42432 851.015126,84.16896 C845.146175,83.9136 844.960339,83.54112 844.024438,83.22864 L844.024438,83.22864 Z M845.100076,71.53536 C846.801889,71.8944 848.505623,72.07344 850.209357,72.07344 C854.690543,72.07344 858.365,70.99824 861.234648,68.84736 C864.192653,66.2496 865.671656,63.65184 865.671656,61.05216 C865.671656,59.62032 865.133837,58.23024 864.058199,56.88576 C862.983041,55.54176 861.726849,54.87024 860.293465,54.87024 C857.154907,54.87024 853.974091,56.93184 850.747177,61.05216 C848.058081,64.45872 846.175714,67.95312 845.100076,71.53536 L845.100076,71.53536 Z M819.535903,114.50496 C821.596903,114.59328 823.523447,113.74272 825.317458,111.95184 L829.351101,124.04784 C825.136905,128.5272 819.090282,131.0352 811.199708,131.30496 C806.789591,131.45568 802.502885,129.66192 798.426024,125.79696 C793.746518,121.36032 793.078086,112.80336 795.24761,104.43792 C797.417133,96.07248 805.886343,63.86496 806.404955,61.83264 C806.923566,59.80032 804.568206,56.26032 802.331935,56.17536 C796.592157,55.95792 790.610361,63.53088 789.982745,65.724 C789.583703,67.11792 779.671505,104.42496 779.671505,104.42496 L761.182054,104.42496 L777.856846,40.98816 L796.346297,40.98816 L795.334045,45.28944 C800.352569,42.4224 805.237119,40.98816 809.989615,40.98816 C811.691428,40.98816 813.177153,41.1456 814.426622,41.52144 C821.14888,43.5456 825.451913,50.29152 825.451913,57.948 C825.451913,59.37168 825.317458,60.66336 825.048549,61.82016 C825.048549,61.82016 815.233831,99.22224 813.753868,104.42496 C812.274866,109.62816 815.590616,114.14592 819.535903,114.50496 L819.535903,114.50496 Z M432.978446,114.50496 C435.039445,114.59328 436.96599,113.74272 438.760001,111.95184 L442.793644,124.04784 C438.579447,128.5272 432.532824,131.0352 424.64225,131.30496 C420.232134,131.45568 415.945428,129.66192 411.868567,125.79696 C407.189061,121.36032 406.520629,112.80336 408.690153,104.43792 C410.859676,96.07248 419.328886,63.86496 419.847497,61.83264 C420.366109,59.80032 418.010749,56.26032 415.774478,56.17536 C410.0347,55.95792 404.052904,63.53088 403.425288,65.724 C403.026245,67.11792 393.114048,104.42496 393.114048,104.42496 L374.624597,104.42496 L391.299389,40.98816 L409.78884,40.98816 L408.776588,45.28944 C413.795112,42.4224 418.679662,40.98816 423.432157,40.98816 C425.133971,40.98816 426.619696,41.1456 427.869165,41.52144 C434.591423,43.5456 438.894456,50.29152 438.894456,57.948 C438.894456,59.37168 438.760001,60.66336 438.491091,61.82016 C438.491091,61.82016 428.676374,99.22224 427.196411,104.42496 C425.717408,109.62816 429.033159,114.14592 432.978446,114.50496 L432.978446,114.50496 Z M264.94456,90.38208 C270.027911,90.672 275.807065,86.28144 277.253894,80.68464 C278.700724,75.08784 287.636203,41.05728 287.636203,41.05728 L306.245704,41.05728 L289.707767,105.03216 L270.95757,105.03216 L272.094193,101.13408 C266.716002,104.00304 261.195193,105.4992 255.690711,105.43536 C250.186229,105.37056 238.302348,99.5208 242.110779,84.87168 C243.672376,78.86544 253.673889,41.05728 253.673889,41.05728 L272.168143,41.05728 C272.168143,41.05728 261.118842,82.7544 260.609355,84.85728 C260.128679,86.83536 262.257386,90.22944 264.94456,90.38208 L264.94456,90.38208 Z M196.517648,97.6608 L194.545004,104.64336 L176.057474,104.64336 L201.067981,9.35328 L219.834986,9.35328 L209.958803,46.452 C214.706497,42.77712 219.363914,40.93728 223.933455,40.93728 C225.992534,40.93728 227.874901,41.29632 229.576714,42.01056 C236.742673,45.05136 240.326853,51.9792 240.326853,62.7984 C240.326853,68.88048 238.981825,75.00384 236.295131,81.17328 C233.337126,88.14768 229.328453,93.80304 224.267671,98.13936 C219.204489,102.47568 214.166277,104.64336 209.149673,104.64336 C203.773884,104.64336 199.564009,102.31632 196.517648,97.6608 L196.517648,97.6608 Z M217.738932,53.70576 C215.587656,53.70576 213.255826,55.0896 210.747284,57.85728 C208.236341,60.62496 206.175822,64.12752 204.562365,68.36736 C202.948908,72.60768 202.142179,76.51152 202.142179,80.08128 C202.142179,86.0616 203.890091,89.052 207.385915,89.052 C209.537191,89.052 211.8671,87.67008 214.377563,84.9024 C216.886105,82.13424 218.993203,78.56448 220.697417,74.19024 C222.220598,70.0848 222.983148,66.24624 222.983148,62.67648 C222.982188,56.69568 221.234276,53.70576 217.738932,53.70576 L217.738932,53.70576 Z M348.426565,58.94736 C343.317284,55.27488 337.310998,53.43744 330.409146,53.43744 C328.884045,53.43744 327.360865,53.9304 325.837684,54.91584 C324.312103,55.90272 323.551953,57.11232 323.551953,58.54464 C323.551953,59.9784 325.478498,61.68192 329.333508,63.65184 C334.711219,66.33984 338.295399,68.40192 340.089409,69.83424 C343.854143,72.97152 345.73699,76.73472 345.73699,81.12432 C345.73699,88.74048 343.182349,94.85568 338.072588,99.46992 C332.963307,104.0856 326.554136,106.39152 318.846036,106.39152 C316.244817,106.39152 312.57084,105.85392 307.820265,104.77872 C302.620707,103.70352 299.261739,102.58464 297.736157,101.41872 L301.501371,86.50032 C306.430099,89.36928 312.345628,90.8016 319.2494,90.8016 C325.16493,90.8016 328.122935,89.14464 328.122935,85.8288 C328.122935,83.32128 326.351974,81.08064 322.811972,79.1088 C319.269569,77.13888 315.753096,75.2112 312.257272,73.3296 C308.580895,70.55376 306.745107,67.05888 306.745107,62.8464 C306.745107,55.94784 309.434202,50.16864 314.812393,45.5088 C319.921674,41.11968 325.972139,38.9232 332.963787,38.9232 C340.940796,38.9232 347.350447,40.58208 352.190819,43.89552 L348.426565,58.94736 L348.426565,58.94736 Z M381.635452,40.80336 L364.964982,104.64336 L346.344917,104.64336 L363.015388,40.80336 L381.635452,40.80336 L381.635452,40.80336 Z M377.33242,30.45408 C374.284138,30.54432 371.685319,29.84928 369.534523,28.37088 C367.383247,26.89248 366.307129,25.0344 366.307129,22.79328 C366.307129,20.55504 367.382767,18.60576 369.534523,16.94688 C371.685319,15.28992 374.284618,14.41632 377.33242,14.32608 C380.37878,14.23776 382.98,14.93088 385.130796,16.40928 C387.282072,17.88768 388.358191,19.74816 388.358191,21.98688 C388.358191,24.22752 387.282553,26.17632 385.130796,27.83328 C382.98,29.49216 380.37878,30.36624 377.33242,30.45408 L377.33242,30.45408 Z M537.735517,58.94736 C532.626236,55.27488 526.619949,53.43744 519.718098,53.43744 C518.192997,53.43744 516.669816,53.9304 515.146636,54.91584 C513.621054,55.90272 512.860905,57.11232 512.860905,58.54464 C512.860905,59.9784 514.787449,61.68192 518.64246,63.65184 C524.02017,66.33984 527.60435,68.40192 529.398361,69.83424 C533.163094,72.97152 535.045941,76.73472 535.045941,81.12432 C535.045941,88.74048 532.491301,94.85568 527.381539,99.46992 C522.272258,104.0856 515.863088,106.39152 508.154988,106.39152 C505.553768,106.39152 501.879792,105.85392 497.129217,104.77872 C491.929659,103.70352 488.57069,102.58464 487.045109,101.41872 L490.810323,86.50032 C495.73905,89.36928 501.65458,90.8016 508.558352,90.8016 C514.473882,90.8016 517.431887,89.14464 517.431887,85.8288 C517.431887,83.32128 515.660925,81.08064 512.120923,79.1088 C508.57852,77.13888 505.062048,75.2112 501.566224,73.3296 C497.889846,70.55376 496.054059,67.05888 496.054059,62.8464 C496.054059,55.94784 498.743154,50.16864 504.121345,45.5088 C509.230626,41.11968 515.28109,38.9232 522.272738,38.9232 C530.249748,38.9232 536.659399,40.58208 541.49977,43.89552 L537.735517,58.94736 L537.735517,58.94736 Z M587.078976,58.94736 C581.969695,55.27488 575.963408,53.43744 569.061557,53.43744 C567.536456,53.43744 566.013275,53.9304 564.490095,54.91584 C562.964513,55.90272 562.204364,57.11232 562.204364,58.54464 C562.204364,59.9784 564.130909,61.68192 567.985919,63.65184 C573.363629,66.33984 576.947809,68.40192 578.74182,69.83424 C582.506554,72.97152 584.3894,76.73472 584.3894,81.12432 C584.3894,88.74048 581.83476,94.85568 576.724999,99.46992 C571.615717,104.0856 565.206547,106.39152 557.498447,106.39152 C554.897227,106.39152 551.223251,105.85392 546.472676,104.77872 C541.273118,103.70352 537.91415,102.58464 536.388568,101.41872 L540.153782,86.50032 C545.08251,89.36928 550.998039,90.8016 557.901811,90.8016 C563.817341,90.8016 566.775346,89.14464 566.775346,85.8288 C566.775346,83.32128 565.004384,81.08064 561.464382,79.1088 C557.921979,77.13888 554.405507,75.2112 550.909683,73.3296 C547.233306,70.55376 545.397518,67.05888 545.397518,62.8464 C545.397518,55.94784 548.086613,50.16864 553.464804,45.5088 C558.574085,41.11968 564.62455,38.9232 571.616198,38.9232 C579.593207,38.9232 586.002858,40.58208 590.843229,43.89552 L587.078976,58.94736 L587.078976,58.94736 Z M631.446648,103.83696 C623.020176,99.71664 618.8079,91.83072 618.8079,80.18208 C618.8079,73.91232 620.286903,67.77312 623.244908,61.76976 C626.381545,55.23072 630.63992,50.00976 636.018111,46.11216 C641.396301,42.21456 646.862848,40.26576 652.421592,40.26576 C655.648507,40.26576 658.650689,40.98384 661.430062,42.41568 C669.854613,46.44768 674.06881,54.28896 674.06881,65.93568 C674.06881,72.20832 672.589807,78.34656 669.631802,84.34848 C666.493244,90.88992 662.23727,96.10848 656.8586,100.00608 C651.479929,103.90368 646.011941,105.85248 640.455118,105.85248 C637.228203,105.85248 634.22362,105.18048 631.446648,103.83696 L631.446648,103.83696 Z M652.556047,54.78048 C650.493127,54.78048 648.206915,56.05728 645.698854,58.61088 C643.188391,61.16448 641.037115,64.59168 639.245505,68.89248 C637.363138,73.46208 636.421475,77.80896 636.421475,81.92928 C636.421475,87.84288 638.123288,90.79968 641.531236,90.79968 C643.592236,90.79968 645.877967,89.54592 648.388429,87.03648 C650.896971,84.52848 653.070817,81.0552 654.909005,76.62 C656.745273,72.18528 657.665328,67.90752 657.665328,63.78528 C657.664848,57.78384 655.961114,54.78048 652.556047,54.78048 L652.556047,54.78048 Z M681.059978,103.43328 L677.564154,40.80336 L695.715547,40.80336 L697.598394,74.53728 L716.556036,40.80336 L734.70743,40.80336 L735.245249,40.80336 L734.841885,41.6136 L736.589797,74.53728 L755.951283,40.80336 L774.237132,40.80336 L738.337709,104.50896 L719.514041,104.50896 L720.05186,103.43376 L718.303468,70.50576 L699.210891,103.83696 L699.345346,104.50848 L680.521678,104.50848 L681.059978,103.43328 L681.059978,103.43328 Z M925.36285,42.00672 L921.184188,59.35056 C918.846115,58.00656 916.644419,57.33456 914.576696,57.33456 C909.812196,57.33456 906.082997,60.6 903.387659,67.12896 L893.32468,104.50896 L874.807377,104.50896 L891.883133,41.07216 L910.400435,41.07216 L909.362733,45.10416 C913.753641,42.41568 917.743106,41.07216 921.329207,41.07216 C922.942664,41.07168 924.286732,41.38464 925.36285,42.00672 L925.36285,42.00672 Z M968.253921,58.94736 C963.14464,55.27488 957.138353,53.43744 950.236502,53.43744 C948.7114,53.43744 947.18822,53.9304 945.66504,54.91584 C944.139458,55.90272 943.379309,57.11232 943.379309,58.54464 C943.379309,59.9784 945.305853,61.68192 949.160864,63.65184 C954.538574,66.33984 958.122754,68.40192 959.916765,69.83424 C963.681498,72.97152 965.564345,76.73472 965.564345,81.12432 C965.564345,88.74048 963.009705,94.85568 957.899943,99.46992 C952.790662,104.0856 946.381491,106.39152 938.673392,106.39152 C936.072172,106.39152 932.398196,105.85392 927.647621,104.77872 C922.448063,103.70352 919.089094,102.58464 917.563513,101.41872 L921.328727,86.50032 C926.257454,89.36928 932.172984,90.8016 939.076756,90.8016 C944.992286,90.8016 947.95029,89.14464 947.95029,85.8288 C947.95029,83.32128 946.179329,81.08064 942.639327,79.1088 C939.096924,77.13888 935.580452,75.2112 932.084628,73.3296 C928.40825,70.55376 926.572463,67.05888 926.572463,62.8464 C926.572463,55.94784 929.261558,50.16864 934.639749,45.5088 C939.74903,41.11968 945.799494,38.9232 952.791142,38.9232 C960.768152,38.9232 967.177802,40.58208 972.018174,43.89552 L968.253921,58.94736 L968.253921,58.94736 Z M968.253921,58.94736" id="Shape" fill="#56291A"></path>
        </g>
    </g>
</svg>